<svg width="200" height="200" viewBox="0 0 200 200" fill="none" xmlns="http://www.w3.org/2000/svg">
  <circle cx="100" cy="100" r="95" fill="#4CAF50" />
  <path d="M100 30C61.3401 30 30 61.3401 30 100C30 138.66 61.3401 170 100 170C138.66 170 170 138.66 170 100C170 61.3401 138.66 30 100 30ZM100 160C66.8629 160 40 133.137 40 100C40 66.8629 66.8629 40 100 40C133.137 40 160 66.8629 160 100C160 133.137 133.137 160 100 160Z" fill="white" />
  <path d="M85 70L115 100L85 130" stroke="white" stroke-width="10" stroke-linecap="round" stroke-linejoin="round" />
  <circle cx="75" cy="70" r="5" fill="white" />
  <circle cx="125" cy="100" r="5" fill="white" />
  <circle cx="75" cy="130" r="5" fill="white" />
  <path d="M60 90H80M120 110H140M90 50V70M110 130V150" stroke="white" stroke-width="5" stroke-linecap="round" />
</svg>